<svg width="59" height="14" viewBox="0 0 59 14" fill="none" xmlns="http://www.w3.org/2000/svg">
<path d="M12.1975 12.7705L12.2145 12.847C12.2145 12.8923 12.1975 12.9292 12.1635 12.9575C12.1352 12.9858 12.0927 13 12.036 13H9.1885C9.0695 13 8.993 12.9462 8.959 12.8385L8.1685 10.263H4.012L3.264 12.83C3.23 12.9433 3.1535 13 3.0345 13H0.2125C0.155833 13 0.1105 12.9887 0.0765 12.966C0.0481667 12.9377 0.034 12.9008 0.034 12.8555C0.034 12.8442 0.0396667 12.8158 0.051 12.7705L3.995 1.2615C4.029 1.15383 4.10267 1.1 4.216 1.1H8.1515C8.26483 1.1 8.3385 1.15383 8.3725 1.2615L12.1975 12.7705ZM7.4205 7.8065L6.035 3.3185L4.7175 7.8065H7.4205ZM13.1105 13C12.9801 13 12.915 12.932 12.915 12.796L13.034 7.1435L12.915 1.2955C12.915 1.16517 12.9801 1.1 13.1105 1.1H18.4995C19.8141 1.1 20.8596 1.34083 21.636 1.8225C22.418 2.30417 22.809 3.05783 22.809 4.0835C22.809 4.76917 22.6446 5.32167 22.316 5.741C21.9873 6.15467 21.4943 6.472 20.837 6.693C21.6076 6.863 22.1941 7.1945 22.5965 7.6875C22.9988 8.1805 23.2 8.78683 23.2 9.5065C23.2 10.2885 22.9818 10.943 22.5455 11.47C22.1148 11.9913 21.551 12.3767 20.854 12.626C20.1626 12.8753 19.4146 13 18.61 13H13.1105ZM16.1535 3.293L16.06 5.775H18.3805C18.8111 5.775 19.1426 5.67017 19.375 5.4605C19.613 5.24517 19.732 4.93917 19.732 4.5425C19.732 4.1345 19.6073 3.82567 19.358 3.616C19.1143 3.40067 18.7885 3.293 18.3805 3.293H16.1535ZM16.06 7.9L16.1535 10.807H18.3805C18.9131 10.807 19.3155 10.6937 19.5875 10.467C19.8595 10.2347 19.9955 9.84933 19.9955 9.311C19.9955 8.818 19.8566 8.461 19.579 8.24C19.3013 8.01333 18.9018 7.9 18.3805 7.9H16.06ZM30.0961 13.2805C28.8608 13.2805 27.7728 13.017 26.8321 12.49C25.8971 11.963 25.1718 11.232 24.6561 10.297C24.1461 9.35633 23.8911 8.28817 23.8911 7.0925C23.8911 5.84017 24.1433 4.74083 24.6476 3.7945C25.1576 2.84817 25.8801 2.11717 26.8151 1.6015C27.7501 1.08017 28.8438 0.819499 30.0961 0.819499C31.3371 0.819499 32.4251 1.0745 33.3601 1.5845C34.3008 2.0945 35.0289 2.82267 35.5446 3.769C36.0603 4.71533 36.3181 5.82317 36.3181 7.0925C36.3181 8.2825 36.0603 9.34783 35.5446 10.2885C35.0346 11.2235 34.3064 11.9573 33.3601 12.49C32.4194 13.017 31.3314 13.2805 30.0961 13.2805ZM30.1216 10.909C31.0679 10.909 31.7904 10.5747 32.2891 9.906C32.7934 9.23167 33.0456 8.29383 33.0456 7.0925C33.0456 5.87983 32.7934 4.92783 32.2891 4.2365C31.7904 3.5395 31.0594 3.191 30.0961 3.191C29.1328 3.191 28.4018 3.531 27.9031 4.211C27.4101 4.891 27.1636 5.8515 27.1636 7.0925C27.1636 7.8745 27.2769 8.55167 27.5036 9.124C27.7303 9.69633 28.0646 10.1383 28.5066 10.45C28.9543 10.756 29.4926 10.909 30.1216 10.909ZM42.4768 13.2805C40.8221 13.2805 39.5584 12.8838 38.6858 12.0905C37.8188 11.2972 37.3881 10.1412 37.3938 8.6225L37.4023 5.656L37.3343 1.2955C37.3343 1.16517 37.3994 1.1 37.5298 1.1H40.4538C40.5841 1.1 40.6493 1.16517 40.6493 1.2955L40.5728 5.571L40.5898 8.597C40.5954 9.35633 40.7513 9.91733 41.0573 10.28C41.3633 10.6427 41.8364 10.824 42.4768 10.824C43.1908 10.824 43.7178 10.6427 44.0578 10.28C44.3978 9.91733 44.5678 9.35633 44.5678 8.597V5.639L44.5083 1.2955C44.5083 1.16517 44.5734 1.1 44.7038 1.1H47.3048C47.4351 1.1 47.5003 1.16517 47.5003 1.2955L47.4493 5.656V8.6225C47.4493 10.1525 47.0299 11.3113 46.1913 12.099C45.3583 12.8867 44.1201 13.2805 42.4768 13.2805ZM51.8768 13C51.7465 13 51.6813 12.932 51.6813 12.796L51.8088 7.016L51.7238 3.378H48.5703C48.508 3.378 48.4598 3.361 48.4258 3.327C48.3918 3.28733 48.3748 3.23633 48.3748 3.174V1.2955C48.3748 1.23317 48.3918 1.185 48.4258 1.151C48.4655 1.117 48.5137 1.1 48.5703 1.1H58.1073C58.1697 1.1 58.2178 1.117 58.2518 1.151C58.2915 1.185 58.3113 1.23317 58.3113 1.2955V3.174C58.3113 3.23633 58.2915 3.28733 58.2518 3.327C58.2178 3.361 58.1697 3.378 58.1073 3.378H54.9623L54.8773 7.016L55.0048 12.796C55.0048 12.932 54.9397 13 54.8093 13H51.8768Z" fill="black"/>
</svg>
