<svg width="57" height="14" viewBox="0 0 57 14" fill="none" xmlns="http://www.w3.org/2000/svg">
<path d="M12.5005 12.7705L12.5175 12.847C12.5175 12.8923 12.5005 12.9292 12.4665 12.9575C12.4382 12.9858 12.3957 13 12.339 13H10.078C9.96467 13 9.88817 12.9462 9.8485 12.8385L8.939 9.974H4.4765L3.601 12.83C3.567 12.9433 3.4905 13 3.3715 13H1.153C1.034 13 0.9745 12.949 0.9745 12.847C0.9745 12.813 0.977333 12.7875 0.983 12.7705L4.9865 1.2615C5.02617 1.15383 5.10267 1.1 5.216 1.1H8.361C8.46867 1.1 8.54233 1.15383 8.582 1.2615L12.5005 12.7705ZM8.2845 7.917L6.661 2.834L5.1055 7.917H8.2845ZM13.4148 13C13.2844 13 13.2193 12.932 13.2193 12.796L13.3468 7.05L13.2193 1.2955C13.2193 1.16517 13.2844 1.1 13.4148 1.1H18.5063C19.7869 1.1 20.8126 1.34367 21.5833 1.831C22.3539 2.31833 22.7393 3.055 22.7393 4.041C22.7393 4.738 22.5636 5.30183 22.2123 5.7325C21.8666 6.16317 21.3566 6.47767 20.6823 6.676C21.4586 6.85167 22.0479 7.18033 22.4503 7.662C22.8583 8.14367 23.0623 8.72167 23.0623 9.396C23.0623 10.2177 22.8554 10.8977 22.4418 11.436C22.0281 11.9743 21.4841 12.371 20.8098 12.626C20.1354 12.8753 19.3959 13 18.5913 13H13.4148ZM15.8968 2.902L15.7863 5.894H18.5403C19.0503 5.894 19.4469 5.7665 19.7303 5.5115C20.0136 5.2565 20.1553 4.891 20.1553 4.415C20.1553 3.91633 20.0023 3.5395 19.6963 3.2845C19.3959 3.0295 19.0106 2.902 18.5403 2.902H15.8968ZM15.7863 7.696L15.8968 11.198H18.5403C19.1296 11.198 19.5943 11.062 19.9343 10.79C20.2743 10.5123 20.4443 10.0477 20.4443 9.396C20.4443 8.80667 20.2686 8.376 19.9173 8.104C19.5659 7.832 19.1069 7.696 18.5403 7.696H15.7863ZM29.7045 13.255C28.5088 13.255 27.4577 12.9943 26.551 12.473C25.6443 11.9517 24.9417 11.2263 24.443 10.297C23.95 9.362 23.7035 8.291 23.7035 7.084C23.7035 5.83167 23.95 4.73517 24.443 3.7945C24.936 2.85383 25.633 2.1285 26.534 1.6185C27.4407 1.10283 28.4975 0.844999 29.7045 0.844999C30.9058 0.844999 31.9598 1.1 32.8665 1.61C33.7732 2.11433 34.4758 2.83683 34.9745 3.7775C35.4732 4.71817 35.7225 5.82033 35.7225 7.084C35.7225 8.291 35.4732 9.362 34.9745 10.297C34.4758 11.2263 33.7703 11.9517 32.858 12.473C31.9513 12.9943 30.9002 13.255 29.7045 13.255ZM29.7215 11.266C30.4298 11.266 31.0333 11.0988 31.532 10.7645C32.0307 10.4302 32.4075 9.95133 32.6625 9.328C32.9232 8.699 33.0535 7.951 33.0535 7.084C33.0535 6.21133 32.9232 5.45767 32.6625 4.823C32.4075 4.18833 32.0278 3.69817 31.5235 3.3525C31.0248 3.00683 30.4185 2.834 29.7045 2.834C28.9848 2.834 28.3757 3.004 27.877 3.344C27.384 3.67833 27.01 4.16567 26.755 4.806C26.5 5.44067 26.3725 6.2 26.3725 7.084C26.3725 7.94533 26.5028 8.6905 26.7635 9.3195C27.0242 9.94283 27.4038 10.4245 27.9025 10.7645C28.4068 11.0988 29.0132 11.266 29.7215 11.266ZM41.6118 13.255C40.0308 13.255 38.8266 12.8555 37.9993 12.0565C37.1776 11.2518 36.7725 10.093 36.7838 8.58L36.8093 5.35L36.7158 1.2955C36.7158 1.16517 36.781 1.1 36.9113 1.1H39.2573C39.3876 1.1 39.4528 1.16517 39.4528 1.2955L39.3593 5.282L39.3848 8.563C39.3961 9.43 39.5803 10.0873 39.9373 10.535C40.2943 10.977 40.8525 11.198 41.6118 11.198C42.4278 11.198 43.0313 10.977 43.4223 10.535C43.8133 10.0873 44.0088 9.43 44.0088 8.563V5.333L43.9408 1.2955C43.9408 1.16517 44.006 1.1 44.1363 1.1H46.2273C46.3576 1.1 46.4228 1.16517 46.4228 1.2955L46.3548 5.35V8.58C46.3548 10.1043 45.9553 11.266 45.1563 12.065C44.363 12.8583 43.1815 13.255 41.6118 13.255ZM50.751 13C50.615 13 50.5499 12.932 50.5555 12.796L50.7085 7.05L50.581 3.021H47.368C47.3057 3.021 47.2575 3.004 47.2235 2.97C47.1895 2.93033 47.1725 2.87933 47.1725 2.817V1.2955C47.1725 1.23317 47.1895 1.185 47.2235 1.151C47.2632 1.117 47.3114 1.1 47.368 1.1H56.4885C56.5509 1.1 56.599 1.117 56.633 1.151C56.6727 1.185 56.6925 1.23317 56.6925 1.2955V2.817C56.6925 2.87933 56.6727 2.93033 56.633 2.97C56.599 3.004 56.5509 3.021 56.4885 3.021H53.2755L53.148 7.05L53.301 12.796C53.3124 12.932 53.25 13 53.114 13H50.751Z" fill="black"/>
</svg>
