<svg width="26" height="25" viewBox="0 0 26 25" fill="none" xmlns="http://www.w3.org/2000/svg">
<rect y="1.36328" width="20.9821" height="21.3636" rx="8" fill="white"/>
<path d="M21.9568 13.3761C21.9349 13.578 21.9245 13.7286 21.9141 13.8248C21.9046 13.9009 21.8436 13.9597 21.7686 13.9636L21.7683 13.9637C21.7058 13.9637 21.5912 13.9744 21.4245 13.9861C21.2601 14.0061 21.0696 14.0174 20.8766 14.0174C20.8571 14.0174 20.8378 14.0173 20.8184 14.0171H20.8214C20.5818 14.0171 20.3307 13.9743 20.061 13.9743H16.7588C16.8012 14.331 16.9158 14.6531 17.0874 14.935L17.0818 14.9251C17.2666 15.2105 17.5253 15.4319 17.8301 15.563L17.8412 15.5672C18.2171 15.7364 18.6554 15.8349 19.1161 15.8349C19.137 15.8349 19.1578 15.8347 19.1787 15.8343H19.1756C19.5634 15.8262 19.9364 15.7838 20.2983 15.7099L20.2578 15.7168C20.6034 15.6707 20.9167 15.5845 21.2116 15.4616L21.186 15.4711C21.2381 15.4294 21.2694 15.4496 21.2694 15.5565V17.1922C21.2675 17.2383 21.2596 17.2817 21.2466 17.3228L21.2475 17.3193C21.2285 17.3493 21.2045 17.3742 21.1766 17.3936L21.1757 17.3941C20.8754 17.5335 20.5257 17.6448 20.1608 17.7106L20.134 17.7147C19.7344 17.7972 19.2749 17.8445 18.8047 17.8445C18.752 17.8445 18.6995 17.8439 18.6471 17.8427L18.6549 17.8429C18.6149 17.8441 18.5678 17.8447 18.5206 17.8447C17.8479 17.8447 17.2067 17.7066 16.6223 17.4565L16.6549 17.4689C16.1315 17.2314 15.6919 16.887 15.3461 16.4599L15.3414 16.4539C15.0244 16.06 14.7779 15.5928 14.6296 15.0822L14.6227 15.0544C14.4844 14.5876 14.4049 14.0511 14.4049 13.4955C14.4049 12.8878 14.5001 12.3029 14.6761 11.7556L14.6652 11.7948C14.8431 11.2316 15.1096 10.7444 15.452 10.3242L15.4465 10.3311C15.7879 9.90971 16.2074 9.5679 16.6838 9.32632L16.7059 9.31621C17.1684 9.10453 17.708 8.98125 18.2758 8.98125C18.3355 8.98125 18.3948 8.98259 18.4538 8.98532L18.4455 8.98505C18.4716 8.98435 18.5023 8.98398 18.5333 8.98398C19.086 8.98398 19.6109 9.10632 20.0837 9.32605L20.06 9.31623C20.4979 9.51399 20.8645 9.80443 21.1496 10.1654L21.1538 10.1709C21.4189 10.5178 21.6321 10.9224 21.7721 11.361L21.7798 11.3889C21.9047 11.7748 21.9767 12.2191 21.9767 12.6807V12.6929V12.6923C21.9767 12.9487 21.9663 13.173 21.9569 13.376L21.9568 13.3761ZM13.7786 17.64H11.6016C11.5973 17.6404 11.5923 17.6406 11.5872 17.6406C11.5152 17.6406 11.4543 17.5912 11.4352 17.5236L11.4349 17.5224L10.5807 14.9583H6.70575L5.91408 17.4797C5.89691 17.5661 5.82338 17.6303 5.73527 17.6303C5.72854 17.6303 5.72191 17.6299 5.71536 17.6292L5.71615 17.6293H3.75786C3.64325 17.6293 3.612 17.5652 3.64325 17.437L6.99748 7.57479C7.0287 7.46794 7.05995 7.37178 7.10164 7.24358C7.14136 7.03651 7.16411 6.7984 7.16411 6.55484V6.54884V6.54916C7.16359 6.54515 7.16327 6.54042 7.16327 6.53568C7.16327 6.48413 7.19922 6.44119 7.2468 6.43177L7.24745 6.43166H9.94534C10.0183 6.43166 10.0703 6.46371 10.0808 6.51711L13.8829 17.468C13.9141 17.5855 13.8838 17.64 13.7787 17.64L13.7786 17.64ZM21.112 0H4.96245C2.51947 0 0.539062 2.03118 0.539062 4.53679V4.5408V4.54053V20.4632C0.539062 22.9688 2.51947 25 4.96243 25H21.1157C23.5587 25 25.5391 22.9688 25.5391 20.4632V20.4592V20.4594V4.54056V4.53682C25.5391 2.03118 23.5587 0 21.1157 0H21.1118H21.112H21.112ZM18.3724 10.8333C18.3479 10.8318 18.3192 10.8309 18.2904 10.8309C17.7261 10.8309 17.2362 11.1578 16.9909 11.637L16.987 11.6452C16.8716 11.8683 16.7905 12.1284 16.7588 12.404L16.7579 12.4145H18.9547C19.2256 12.4145 19.4235 12.4145 19.5485 12.4038C19.6386 12.3959 19.7203 12.3651 19.7899 12.3171L19.7881 12.3183V12.2116V12.2108C19.7881 12.0695 19.7648 11.9339 19.722 11.8076L19.7245 11.8162C19.5427 11.2412 19.0251 10.8327 18.4144 10.8327C18.3997 10.8327 18.3849 10.8329 18.3702 10.8334L18.3724 10.8333L18.3724 10.8333ZM9.43494 11.1432C9.33076 10.812 9.23701 10.4915 9.13277 10.1604C9.02854 9.82926 8.93484 9.51935 8.8515 9.20954C8.76819 8.91035 8.69526 8.63257 8.62235 8.37617H8.60156C8.48924 8.93344 8.367 9.39569 8.22156 9.84702L8.24743 9.75437C8.09119 10.2672 7.93494 10.8014 7.76831 11.3356C7.63288 11.8805 7.46614 12.3826 7.31 12.8313H9.95577C9.89327 12.607 9.80996 12.3399 9.71618 12.0621C9.62246 11.7735 9.52871 11.4637 9.43499 11.1432L9.43494 11.1432Z" fill="black"/>
</svg>
