<svg width="27" height="27" viewBox="0 0 27 27" fill="none" xmlns="http://www.w3.org/2000/svg">
<g clip-path="url(#clip0_197_120)">
<circle cx="17.3574" cy="14.9463" r="6.75" fill="white"/>
<path d="M14.0734 14.8659C14.1252 13.9659 14.5662 13.1716 15.2322 12.6091C15.931 12.0287 16.8123 11.7139 17.7207 11.7204C18.6769 11.7204 19.5556 12.0579 20.2081 12.6091C20.8741 13.1716 21.3139 13.9659 21.3646 14.8647C21.4152 15.7906 21.0439 16.649 20.3914 17.2869C19.6727 17.9733 18.7144 18.3519 17.7207 18.3421C16.7262 18.352 15.7672 17.9734 15.0477 17.2869C14.3952 16.649 14.0228 15.7906 14.0734 14.8659ZM8.26844 16.685C8.27519 17.0382 8.38769 17.7222 8.55644 18.2577C8.92074 19.4098 9.53238 20.4684 10.3486 21.3594C11.2239 22.3218 12.2922 23.0888 13.4839 23.6105C14.7809 24.1822 16.184 24.4736 17.6014 24.4655C19.0186 24.4683 20.4205 24.1724 21.7156 23.597C22.9064 23.0704 23.9737 22.3001 24.8487 21.3357C25.6635 20.4418 26.2746 19.3817 26.6397 18.2285C26.9907 17.1113 27.0868 15.9295 26.9209 14.7702C26.763 13.6596 26.3736 12.5945 25.7779 11.6439C25.2261 10.7596 24.5205 9.98116 23.6944 9.34549H23.6967L15.2614 2.86887L15.2389 2.85199C14.6854 2.42674 13.7551 2.42899 13.1464 2.85424C12.5311 3.28399 12.4613 3.99612 13.0081 4.44612L13.0069 4.44724L16.5237 7.30812L5.80244 7.31937H5.78781C4.90131 7.32049 4.04969 7.90212 3.88094 8.63787C3.70769 9.38599 4.30844 10.007 5.23094 10.0104V10.0126L10.6647 10.0014L0.967188 17.4455L0.928938 17.4736C0.0143131 18.1734 -0.280437 19.3389 0.295563 20.0757C0.880563 20.8261 2.12369 20.8272 3.04844 20.0802L8.34044 15.7501C8.34044 15.7501 8.26169 16.3351 8.26844 16.685ZM21.8697 18.6436C20.7784 19.7551 19.2529 20.3851 17.6003 20.3874C15.9466 20.3919 14.4199 19.7664 13.3287 18.6571C12.8134 18.1398 12.4159 17.5174 12.1632 16.8324C11.9316 16.1879 11.8401 15.5014 11.8948 14.8187C11.9496 14.1361 12.1492 13.4729 12.4804 12.8735C12.81 12.281 13.2503 11.7574 13.7776 11.3311C14.8373 10.4671 16.1862 10.0002 17.5981 9.99799C19.0111 9.99574 20.3599 10.4592 21.4208 11.3199C21.9608 11.7597 22.3996 12.2806 22.7168 12.8577C23.0452 13.4491 23.2453 14.1031 23.3041 14.777C23.3637 15.4676 23.2719 16.1629 23.0352 16.8144C22.7825 17.5004 22.3843 18.1242 21.8697 18.6436Z" fill="black"/>
</g>
<defs>
<clipPath id="clip0_197_120">
<rect width="27" height="27" fill="white"/>
</clipPath>
</defs>
</svg>
