<svg width="25" height="25" viewBox="0 0 25 25" fill="none" xmlns="http://www.w3.org/2000/svg">
<circle cx="12.4996" cy="12.4996" r="11.1364" fill="white"/>
<path d="M12.5 1C6.15464 1 1 6.15465 1 12.5C1 18.8454 6.15464 24 12.5 24C18.8454 24 24 18.8454 24 12.5C24 6.15465 18.8454 1 12.5 1ZM12.5 2C18.3049 2 23 6.69509 23 12.5C23 18.3049 18.3049 23 12.5 23C6.69508 23 2 18.3049 2 12.5C2 6.69509 6.69508 2 12.5 2ZM12.5 4C10.57 4 9 5.48412 9 7.30762C9 9.08062 10.6422 11.0918 12.1787 12.3828C12.2717 12.4608 12.3855 12.499 12.5 12.499C12.6145 12.499 12.7288 12.4603 12.8213 12.3818C14.3578 11.0908 16 9.08062 16 7.30762C16 5.48462 14.4295 4.0005 12.5 4ZM7.71484 12.5039C6.93186 12.5243 6.2037 12.6736 5.62207 13.0059C4.87757 13.4309 4.34371 14.133 4.11621 14.9805C3.87471 15.8805 4.01309 16.8717 4.49609 17.7002C5.16509 18.8482 6.36055 19.499 7.56055 19.499C8.10705 19.499 8.6548 19.3641 9.1543 19.0791C10.7073 18.1906 11.6382 15.7598 11.9922 13.7803C12.0352 13.5408 11.8994 13.3042 11.6699 13.2217C10.4787 12.7936 9.01981 12.47 7.71484 12.5039ZM17.2861 12.5039C15.9813 12.47 14.5226 12.7936 13.3311 13.2217C13.1016 13.3042 12.9648 13.5408 13.0078 13.7803C13.3613 15.7598 14.2927 18.1916 15.8457 19.0791C16.3447 19.3641 16.8925 19.499 17.4395 19.499C18.639 19.499 19.8344 18.8487 20.5049 17.7002C20.9879 16.8717 21.1258 15.881 20.8848 14.9805C20.6578 14.1325 20.1224 13.4314 19.3779 13.0059C18.7963 12.6736 18.0691 12.5243 17.2861 12.5039Z" fill="black"/>
</svg>
