<svg width="26" height="26" viewBox="0 0 26 26" fill="none" xmlns="http://www.w3.org/2000/svg">
<g clip-path="url(#clip0_197_97)">
<rect x="5.58984" y="5.12402" width="14.9063" height="14.9063" rx="3" fill="white"/>
<path d="M12.4267 14.4215V11.1982H10.763C9.8729 11.1982 9.15137 11.9198 9.15137 12.8099C9.15137 13.6965 9.86737 14.416 10.7528 14.4215H10.763H12.4267Z" fill="black"/>
<path d="M9.15137 16.8186C9.15137 15.9319 9.86737 15.2125 10.7528 15.207H10.763H12.4267V16.7926C12.4267 17.6938 11.6837 18.4302 10.7759 18.4302C9.8825 18.4302 9.15137 17.7054 9.15137 16.8186Z" fill="black"/>
<path d="M14.8235 14.4215C13.9334 14.4215 13.2119 13.7 13.2119 12.8099C13.2119 11.9198 13.9334 11.1982 14.8235 11.1982H14.8756C15.7657 11.1982 16.4872 11.9198 16.4872 12.8099C16.4872 13.7 15.7657 14.4215 14.8756 14.4215H14.8235Z" fill="black"/>
<path d="M14.8756 10.4137H13.2119V7.19043H14.8756C15.7657 7.19043 16.4872 7.91198 16.4872 8.80206C16.4872 9.69212 15.7657 10.4137 14.8756 10.4137Z" fill="black"/>
<path d="M10.763 7.19043H12.4267V10.4137H10.763C9.8729 10.4137 9.15137 9.69212 9.15137 8.80206C9.15137 7.91198 9.8729 7.19043 10.763 7.19043Z" fill="black"/>
<path fill-rule="evenodd" clip-rule="evenodd" d="M21.6171 0C23.828 0 25.6203 1.79228 25.6203 4.00316V21.6171C25.6203 23.828 23.828 25.6203 21.6171 25.6203H4.00316C1.79228 25.6203 0 23.828 0 21.6171V4.00316C0 1.79228 1.79228 0 4.00316 0H21.6171ZM10.7633 6.40506C9.4397 6.40506 8.36661 7.4781 8.36661 8.80176C8.36661 9.63994 8.79687 10.3776 9.44851 10.806C8.79687 11.2343 8.36661 11.972 8.36661 12.8102C8.36661 13.6483 8.79679 14.3859 9.44843 14.8144C8.79679 15.2427 8.36661 15.9804 8.36661 16.8185C8.36661 18.1455 9.45587 19.2152 10.7763 19.2152C12.111 19.2152 13.2121 18.1338 13.2121 16.7925V14.5842C13.6377 14.971 14.2032 15.2069 14.8237 15.2069H14.8758C16.1994 15.2069 17.2725 14.1338 17.2725 12.8102C17.2725 11.972 16.8423 11.2343 16.1906 10.806C16.8423 10.3776 17.2725 9.63994 17.2725 8.80176C17.2725 7.4781 16.1994 6.40506 14.8758 6.40506H10.7633Z" fill="black"/>
<path d="M11.9345 14.4225V11.1992H10.2708C9.38071 11.1992 8.65918 11.9207 8.65918 12.8109C8.65918 13.6975 9.37519 14.417 10.2606 14.4225H10.2708H11.9345Z" fill="black"/>
<path d="M8.65918 16.8186C8.65918 15.9319 9.37519 15.2125 10.2606 15.207H10.2708H11.9345V16.7926C11.9345 17.6938 11.1915 18.4302 10.2837 18.4302C9.39032 18.4302 8.65918 17.7054 8.65918 16.8186Z" fill="black"/>
<path d="M14.3313 14.4225C13.4413 14.4225 12.7197 13.701 12.7197 12.8109C12.7197 11.9207 13.4413 11.1992 14.3313 11.1992H14.3834C15.2735 11.1992 15.995 11.9207 15.995 12.8109C15.995 13.701 15.2735 14.4225 14.3834 14.4225H14.3313Z" fill="black"/>
<path d="M14.3834 10.4137H12.7197V7.19043H14.3834C15.2735 7.19043 15.995 7.91198 15.995 8.80206C15.995 9.69212 15.2735 10.4137 14.3834 10.4137Z" fill="black"/>
<path d="M10.2708 7.19043H11.9345V10.4137H10.2708C9.38071 10.4137 8.65918 9.69212 8.65918 8.80206C8.65918 7.91198 9.38071 7.19043 10.2708 7.19043Z" fill="black"/>
</g>
<defs>
<clipPath id="clip0_197_97">
<rect width="25.6203" height="25.6203" fill="white"/>
</clipPath>
</defs>
</svg>
