<svg width="18" height="18" viewBox="0 0 18 18" fill="none" xmlns="http://www.w3.org/2000/svg">
<g clip-path="url(#clip0_255_237)">
<path d="M8.98675 11.0711C10.2097 11.0711 11.201 10.0798 11.201 8.85686C11.201 7.63395 10.2097 6.64258 8.98675 6.64258C7.76383 6.64258 6.77246 7.63395 6.77246 8.85686C6.77246 10.0798 7.76383 11.0711 8.98675 11.0711Z" fill="black"/>
<path d="M12.0317 1.9375H5.94238C4.91467 1.9375 3.92905 2.34576 3.20234 3.07246C2.47564 3.79916 2.06738 4.78479 2.06738 5.8125V11.9018C2.06738 12.9295 2.47564 13.9151 3.20234 14.6418C3.92905 15.3685 4.91467 15.7768 5.94238 15.7768H12.0317C13.0594 15.7768 14.045 15.3685 14.7717 14.6418C15.4984 13.9151 15.9067 12.9295 15.9067 11.9018V5.8125C15.9067 4.78479 15.4984 3.79916 14.7717 3.07246C14.045 2.34576 13.0594 1.9375 12.0317 1.9375ZM8.98703 12.1786C8.33011 12.1786 7.68794 11.9838 7.14174 11.6188C6.59553 11.2538 6.16982 10.7351 5.91843 10.1282C5.66703 9.52129 5.60126 8.85346 5.72942 8.20916C5.85758 7.56487 6.17391 6.97305 6.63842 6.50854C7.10293 6.04403 7.69475 5.72769 8.33905 5.59953C8.98334 5.47138 9.65117 5.53715 10.2581 5.78854C10.865 6.03993 11.3837 6.46565 11.7487 7.01186C12.1137 7.55806 12.3085 8.20023 12.3085 8.85714C12.3085 9.73804 11.9585 10.5829 11.3356 11.2057C10.7127 11.8286 9.86792 12.1786 8.98703 12.1786ZM12.5852 6.08929C12.421 6.08929 12.2605 6.04059 12.1239 5.94935C11.9874 5.8581 11.8809 5.72842 11.8181 5.57669C11.7552 5.42496 11.7388 5.25801 11.7708 5.09693C11.8029 4.93586 11.882 4.7879 11.9981 4.67178C12.1142 4.55565 12.2622 4.47657 12.4232 4.44453C12.5843 4.41249 12.7513 4.42893 12.903 4.49178C13.0547 4.55463 13.1844 4.66106 13.2757 4.79761C13.3669 4.93416 13.4156 5.0947 13.4156 5.25893C13.4156 5.47915 13.3281 5.69036 13.1724 5.84608C13.0167 6.0018 12.8055 6.08929 12.5852 6.08929Z" fill="black"/>
</g>
<defs>
<clipPath id="clip0_255_237">
<rect width="17.7143" height="17.7143" fill="white" transform="translate(0.129883)"/>
</clipPath>
</defs>
</svg>
