<svg width="133" height="44" viewBox="0 0 133 44" fill="none" xmlns="http://www.w3.org/2000/svg">
<path d="M31.71 41.15C31.0067 41.15 30.3917 40.9983 29.865 40.695C29.3383 40.3883 28.9333 39.9617 28.65 39.415C28.37 38.865 28.23 38.2367 28.23 37.53C28.23 36.7933 28.3717 36.1483 28.655 35.595C28.9417 35.0383 29.3467 34.6083 29.87 34.305C30.3933 34.0017 31.0033 33.85 31.7 33.85C32.5067 33.85 33.18 34.0417 33.72 34.425C34.26 34.805 34.6283 35.43 34.825 36.3L34.83 36.33C34.83 36.3967 34.7933 36.43 34.72 36.43H33.465C33.3983 36.43 33.3567 36.395 33.34 36.325C33.2367 35.9017 33.045 35.5783 32.765 35.355C32.4883 35.1317 32.1267 35.02 31.68 35.02C31.2767 35.02 30.935 35.12 30.655 35.32C30.375 35.5167 30.1617 35.8033 30.015 36.18C29.8717 36.5533 29.8 37 29.8 37.52C29.8 38.0367 29.8733 38.48 30.02 38.85C30.1667 39.2167 30.38 39.4967 30.66 39.69C30.94 39.8833 31.2767 39.98 31.67 39.98C32.1467 39.98 32.5233 39.8567 32.8 39.61C33.0767 39.3633 33.2633 39 33.36 38.52C33.3733 38.4467 33.4167 38.41 33.49 38.41H34.77C34.8033 38.41 34.8283 38.42 34.845 38.44C34.865 38.46 34.875 38.4867 34.875 38.52C34.875 38.54 34.8733 38.555 34.87 38.565C34.6767 39.4683 34.3133 40.125 33.78 40.535C33.2467 40.945 32.5567 41.15 31.71 41.15ZM38.7358 41.15C38.0624 41.15 37.4641 40.9967 36.9408 40.69C36.4174 40.3833 36.0091 39.9533 35.7158 39.4C35.4258 38.8467 35.2808 38.2133 35.2808 37.5C35.2808 36.77 35.4224 36.13 35.7058 35.58C35.9891 35.03 36.3891 34.605 36.9058 34.305C37.4258 34.0017 38.0274 33.85 38.7108 33.85C39.5608 33.85 40.2591 34.0483 40.8058 34.445C41.3558 34.8417 41.7274 35.4067 41.9208 36.14C41.9241 36.15 41.9258 36.1617 41.9258 36.175C41.9258 36.205 41.9158 36.2283 41.8958 36.245C41.8758 36.2617 41.8491 36.27 41.8158 36.27H40.4858C40.4124 36.27 40.3691 36.2367 40.3558 36.17C40.2391 35.7867 40.0441 35.4967 39.7708 35.3C39.4974 35.1 39.1474 35 38.7208 35C38.3208 35 37.9808 35.1017 37.7008 35.305C37.4208 35.5083 37.2091 35.7983 37.0658 36.175C36.9224 36.5517 36.8508 37 36.8508 37.52C36.8508 38.0267 36.9258 38.4667 37.0758 38.84C37.2258 39.21 37.4458 39.495 37.7358 39.695C38.0291 39.895 38.3791 39.995 38.7858 39.995C39.2891 39.995 39.6874 39.85 39.9808 39.56C40.2741 39.2667 40.4308 38.8517 40.4508 38.315H38.7408C38.6608 38.315 38.6208 38.275 38.6208 38.195V37.325C38.6208 37.2883 38.6308 37.26 38.6508 37.24C38.6741 37.2167 38.7041 37.205 38.7408 37.205H41.9658C42.0424 37.205 42.0808 37.2583 42.0808 37.365C42.0808 38.6183 41.7924 39.5633 41.2158 40.2C40.6391 40.8333 39.8124 41.15 38.7358 41.15ZM51.0562 40.855C51.0762 40.885 51.0862 40.91 51.0862 40.93C51.0862 40.95 51.0762 40.9667 51.0562 40.98C51.0395 40.9933 51.0162 41 50.9862 41H49.4812C49.4178 41 49.3695 40.9767 49.3362 40.93L49.0062 40.52C48.7228 40.7167 48.4112 40.8683 48.0712 40.975C47.7345 41.0783 47.3745 41.13 46.9912 41.13C46.5278 41.13 46.1012 41.0533 45.7112 40.9C45.3245 40.7433 45.0145 40.5117 44.7812 40.205C44.5478 39.8983 44.4312 39.53 44.4312 39.1C44.4312 38.7533 44.5045 38.4467 44.6512 38.18C44.8012 37.91 44.9945 37.6783 45.2312 37.485C45.4712 37.2917 45.7562 37.1067 46.0862 36.93C45.8628 36.6433 45.6878 36.3717 45.5612 36.115C45.4345 35.855 45.3712 35.5967 45.3712 35.34C45.3712 35.0533 45.4545 34.7933 45.6212 34.56C45.7912 34.3267 46.0328 34.1433 46.3462 34.01C46.6595 33.8767 47.0278 33.81 47.4512 33.81C47.8145 33.81 48.1428 33.87 48.4362 33.99C48.7328 34.11 48.9678 34.285 49.1412 34.515C49.3145 34.745 49.4045 35.02 49.4112 35.34C49.4112 35.6033 49.3462 35.8383 49.2162 36.045C49.0862 36.2517 48.9178 36.4317 48.7112 36.585C48.5045 36.7383 48.2478 36.8983 47.9412 37.065L48.0762 37.225C48.1395 37.2983 48.2412 37.4183 48.3812 37.585C48.5212 37.7517 48.6512 37.91 48.7712 38.06L49.1062 38.47C49.2162 38.17 49.2878 37.8533 49.3212 37.52C49.3278 37.4467 49.3695 37.41 49.4462 37.41H50.5962C50.6328 37.41 50.6612 37.4217 50.6812 37.445C50.7012 37.465 50.7095 37.4933 50.7062 37.53C50.6595 37.8967 50.5728 38.25 50.4462 38.59C50.3228 38.93 50.1645 39.2433 49.9712 39.53L51.0562 40.855ZM46.7812 35.37C46.7812 35.4933 46.8195 35.6233 46.8962 35.76C46.9762 35.8967 47.1128 36.0817 47.3062 36.315C47.5862 36.1617 47.7995 36.01 47.9462 35.86C48.0962 35.7067 48.1712 35.5367 48.1712 35.35C48.1712 35.1367 48.1078 34.9717 47.9812 34.855C47.8545 34.7383 47.6778 34.68 47.4512 34.68C47.2445 34.68 47.0812 34.74 46.9612 34.86C46.8412 34.9767 46.7812 35.1467 46.7812 35.37ZM47.1112 40.11C47.5612 40.11 47.9645 39.96 48.3212 39.66L47.0412 38.06C46.9845 37.9867 46.8928 37.8767 46.7662 37.73C46.4928 37.91 46.2812 38.1033 46.1312 38.31C45.9845 38.5133 45.9112 38.75 45.9112 39.02C45.9112 39.39 46.0178 39.665 46.2312 39.845C46.4478 40.0217 46.7412 40.11 47.1112 40.11ZM53.7403 41C53.6636 41 53.6253 40.96 53.6253 40.88L53.6903 37.5L53.6253 34.115C53.6253 34.0383 53.6636 34 53.7403 34H55.5653C55.6353 34 55.6803 34.0317 55.7003 34.095L57.5653 39.12L59.3253 34.095C59.3453 34.0317 59.3886 34 59.4553 34H61.1603C61.237 34 61.2753 34.0383 61.2753 34.115L61.2153 37.5L61.2753 40.88C61.2753 40.96 61.237 41 61.1603 41H59.8553C59.8186 41 59.7886 40.99 59.7653 40.97C59.7453 40.9467 59.7353 40.9167 59.7353 40.88V38.54L59.7953 36.07L58.0903 40.905C58.067 40.9683 58.022 41 57.9553 41H56.9553C56.8853 41 56.8403 40.9683 56.8203 40.905L54.9503 35.855L55.0153 38.54V40.88C55.0153 40.96 54.977 41 54.9003 41H53.7403ZM65.4612 41.15C64.7578 41.15 64.1395 40.9967 63.6062 40.69C63.0728 40.3833 62.6595 39.9567 62.3662 39.41C62.0762 38.86 61.9312 38.23 61.9312 37.52C61.9312 36.7833 62.0762 36.1383 62.3662 35.585C62.6562 35.0317 63.0662 34.605 63.5962 34.305C64.1295 34.0017 64.7512 33.85 65.4612 33.85C66.1678 33.85 66.7878 34 67.3212 34.3C67.8545 34.5967 68.2678 35.0217 68.5612 35.575C68.8545 36.1283 69.0012 36.7767 69.0012 37.52C69.0012 38.23 68.8545 38.86 68.5612 39.41C68.2678 39.9567 67.8528 40.3833 67.3162 40.69C66.7828 40.9967 66.1645 41.15 65.4612 41.15ZM65.4712 39.98C65.8878 39.98 66.2428 39.8817 66.5362 39.685C66.8295 39.4883 67.0512 39.2067 67.2012 38.84C67.3545 38.47 67.4312 38.03 67.4312 37.52C67.4312 37.0067 67.3545 36.5633 67.2012 36.19C67.0512 35.8167 66.8278 35.5283 66.5312 35.325C66.2378 35.1217 65.8812 35.02 65.4612 35.02C65.0378 35.02 64.6795 35.12 64.3862 35.32C64.0962 35.5167 63.8762 35.8033 63.7262 36.18C63.5762 36.5533 63.5012 37 63.5012 37.52C63.5012 38.0267 63.5778 38.465 63.7312 38.835C63.8845 39.2017 64.1078 39.485 64.4012 39.685C64.6978 39.8817 65.0545 39.98 65.4712 39.98ZM71.0153 41C70.9353 41 70.897 40.96 70.9003 40.88L70.9903 37.5L70.9153 35.13H69.0253C68.9886 35.13 68.9603 35.12 68.9403 35.1C68.9203 35.0767 68.9103 35.0467 68.9103 35.01V34.115C68.9103 34.0783 68.9203 34.05 68.9403 34.03C68.9636 34.01 68.992 34 69.0253 34H74.3903C74.427 34 74.4553 34.01 74.4753 34.03C74.4986 34.05 74.5103 34.0783 74.5103 34.115V35.01C74.5103 35.0467 74.4986 35.0767 74.4753 35.1C74.4553 35.12 74.427 35.13 74.3903 35.13H72.5003L72.4253 37.5L72.5153 40.88C72.522 40.96 72.4853 41 72.4053 41H71.0153ZM75.1868 41C75.1101 41 75.0718 40.96 75.0718 40.88L75.1468 37.5L75.0718 34.115C75.0718 34.0383 75.1101 34 75.1868 34H76.5168C76.5935 34 76.6318 34.0383 76.6318 34.115L76.5618 37.5L76.6318 40.88C76.6318 40.96 76.5935 41 76.5168 41H75.1868ZM80.8713 41.15C80.168 41.15 79.5497 40.9967 79.0163 40.69C78.483 40.3833 78.0697 39.9567 77.7763 39.41C77.4863 38.86 77.3413 38.23 77.3413 37.52C77.3413 36.7833 77.4863 36.1383 77.7763 35.585C78.0663 35.0317 78.4763 34.605 79.0063 34.305C79.5397 34.0017 80.1613 33.85 80.8713 33.85C81.578 33.85 82.198 34 82.7313 34.3C83.2647 34.5967 83.678 35.0217 83.9713 35.575C84.2647 36.1283 84.4113 36.7767 84.4113 37.52C84.4113 38.23 84.2647 38.86 83.9713 39.41C83.678 39.9567 83.263 40.3833 82.7263 40.69C82.193 40.9967 81.5747 41.15 80.8713 41.15ZM80.8813 39.98C81.298 39.98 81.653 39.8817 81.9463 39.685C82.2397 39.4883 82.4613 39.2067 82.6113 38.84C82.7647 38.47 82.8413 38.03 82.8413 37.52C82.8413 37.0067 82.7647 36.5633 82.6113 36.19C82.4613 35.8167 82.238 35.5283 81.9413 35.325C81.648 35.1217 81.2913 35.02 80.8713 35.02C80.448 35.02 80.0897 35.12 79.7963 35.32C79.5063 35.5167 79.2863 35.8033 79.1363 36.18C78.9863 36.5533 78.9113 37 78.9113 37.52C78.9113 38.0267 78.988 38.465 79.1413 38.835C79.2947 39.2017 79.518 39.485 79.8113 39.685C80.108 39.8817 80.4647 39.98 80.8813 39.98ZM85.1856 41C85.109 41 85.0706 40.96 85.0706 40.88L85.1356 37.5L85.0706 34.115C85.0706 34.0383 85.109 34 85.1856 34H86.8356C86.899 34 86.9456 34.0267 86.9756 34.08L89.7806 39.035L89.7206 36.93V34.115C89.7206 34.0383 89.7606 34 89.8406 34H91.0456C91.1223 34 91.1606 34.0383 91.1606 34.115L91.1006 37.5L91.1606 40.88C91.1606 40.96 91.1223 41 91.0456 41H89.3356C89.2723 41 89.2256 40.9733 89.1956 40.92L86.4456 36.005L86.5106 38.41V40.88C86.5106 40.96 86.4723 41 86.3956 41H85.1856ZM94.1114 41C94.0347 41 93.9964 40.96 93.9964 40.88L94.0714 37.5L93.9964 34.115C93.9964 34.0383 94.0347 34 94.1114 34H96.5664C97.2631 34 97.8897 34.1283 98.4464 34.385C99.0064 34.6383 99.4514 35.0317 99.7814 35.565C100.111 36.095 100.276 36.7567 100.276 37.55C100.276 38.3433 100.111 38.9983 99.7814 39.515C99.4514 40.0283 99.0081 40.405 98.4514 40.645C97.8981 40.8817 97.2764 41 96.5864 41H94.1114ZM95.5064 37.47L95.5714 39.87H96.6664C97.0597 39.87 97.4081 39.7883 97.7114 39.625C98.0181 39.4617 98.2597 39.2067 98.4364 38.86C98.6164 38.5133 98.7064 38.0733 98.7064 37.54C98.7064 37.0033 98.6164 36.555 98.4364 36.195C98.2597 35.835 98.0147 35.5683 97.7014 35.395C97.3881 35.2183 97.0297 35.13 96.6264 35.13H95.5714L95.5064 37.47ZM101.055 41C100.978 41 100.94 40.96 100.94 40.88L101.015 37.5L100.94 34.115C100.94 34.0383 100.978 34 101.055 34H105.735C105.771 34 105.8 34.01 105.82 34.03C105.84 34.05 105.85 34.0783 105.85 34.115V35.01C105.85 35.0467 105.84 35.0767 105.82 35.1C105.8 35.12 105.771 35.13 105.735 35.13H102.515L102.45 36.74H105.445C105.481 36.74 105.51 36.75 105.53 36.77C105.55 36.79 105.56 36.8183 105.56 36.855V37.75C105.56 37.7867 105.55 37.8167 105.53 37.84C105.51 37.86 105.481 37.87 105.445 37.87H102.45L102.515 39.87H105.815C105.851 39.87 105.88 39.88 105.9 39.9C105.92 39.92 105.93 39.9483 105.93 39.985V40.88C105.93 40.9167 105.92 40.9467 105.9 40.97C105.88 40.99 105.851 41 105.815 41H101.055ZM109.518 41.16C108.898 41.16 108.355 41.0733 107.888 40.9C107.425 40.7233 107.058 40.4567 106.788 40.1C106.522 39.74 106.377 39.2933 106.353 38.76C106.35 38.68 106.388 38.64 106.468 38.64H107.828C107.902 38.64 107.943 38.6767 107.953 38.75C107.987 39.0233 108.057 39.2533 108.163 39.44C108.273 39.6233 108.44 39.7667 108.663 39.87C108.887 39.97 109.182 40.02 109.548 40.02C110.015 40.02 110.367 39.9467 110.603 39.8C110.84 39.65 110.958 39.4133 110.958 39.09C110.958 38.8767 110.882 38.7067 110.728 38.58C110.575 38.4533 110.383 38.3583 110.153 38.295C109.923 38.2283 109.602 38.155 109.188 38.075C108.618 37.9683 108.153 37.855 107.793 37.735C107.437 37.615 107.13 37.415 106.873 37.135C106.617 36.855 106.488 36.47 106.488 35.98C106.488 35.5433 106.598 35.165 106.818 34.845C107.038 34.525 107.358 34.28 107.778 34.11C108.202 33.9367 108.708 33.85 109.298 33.85C110.142 33.85 110.82 34.0217 111.333 34.365C111.85 34.705 112.163 35.2317 112.273 35.945C112.277 35.985 112.268 36.0167 112.248 36.04C112.228 36.06 112.2 36.07 112.163 36.07H110.803C110.73 36.07 110.688 36.0317 110.678 35.955C110.632 35.6483 110.485 35.4133 110.238 35.25C109.992 35.0833 109.658 35 109.238 35C108.858 35 108.557 35.0683 108.333 35.205C108.11 35.3417 107.998 35.55 107.998 35.83C107.998 36.0267 108.073 36.185 108.223 36.305C108.373 36.4217 108.562 36.5117 108.788 36.575C109.018 36.6383 109.332 36.705 109.728 36.775C110.312 36.885 110.785 37 111.148 37.12C111.515 37.2367 111.83 37.4367 112.093 37.72C112.357 38 112.488 38.3867 112.488 38.88C112.488 39.3667 112.368 39.7817 112.128 40.125C111.892 40.465 111.55 40.7233 111.103 40.9C110.66 41.0733 110.132 41.16 109.518 41.16ZM113.234 41C113.157 41 113.119 40.96 113.119 40.88L113.194 37.5L113.119 34.115C113.119 34.0383 113.157 34 113.234 34H114.564C114.64 34 114.679 34.0383 114.679 34.115L114.609 37.5L114.679 40.88C114.679 40.96 114.64 41 114.564 41H113.234ZM118.843 41.15C118.17 41.15 117.572 40.9967 117.048 40.69C116.525 40.3833 116.117 39.9533 115.823 39.4C115.533 38.8467 115.388 38.2133 115.388 37.5C115.388 36.77 115.53 36.13 115.813 35.58C116.097 35.03 116.497 34.605 117.013 34.305C117.533 34.0017 118.135 33.85 118.818 33.85C119.668 33.85 120.367 34.0483 120.913 34.445C121.463 34.8417 121.835 35.4067 122.028 36.14C122.032 36.15 122.033 36.1617 122.033 36.175C122.033 36.205 122.023 36.2283 122.003 36.245C121.983 36.2617 121.957 36.27 121.923 36.27H120.593C120.52 36.27 120.477 36.2367 120.463 36.17C120.347 35.7867 120.152 35.4967 119.878 35.3C119.605 35.1 119.255 35 118.828 35C118.428 35 118.088 35.1017 117.808 35.305C117.528 35.5083 117.317 35.7983 117.173 36.175C117.03 36.5517 116.958 37 116.958 37.52C116.958 38.0267 117.033 38.4667 117.183 38.84C117.333 39.21 117.553 39.495 117.843 39.695C118.137 39.895 118.487 39.995 118.893 39.995C119.397 39.995 119.795 39.85 120.088 39.56C120.382 39.2667 120.538 38.8517 120.558 38.315H118.848C118.768 38.315 118.728 38.275 118.728 38.195V37.325C118.728 37.2883 118.738 37.26 118.758 37.24C118.782 37.2167 118.812 37.205 118.848 37.205H122.073C122.15 37.205 122.188 37.2583 122.188 37.365C122.188 38.6183 121.9 39.5633 121.323 40.2C120.747 40.8333 119.92 41.15 118.843 41.15ZM122.979 41C122.902 41 122.864 40.96 122.864 40.88L122.929 37.5L122.864 34.115C122.864 34.0383 122.902 34 122.979 34H124.629C124.692 34 124.739 34.0267 124.769 34.08L127.574 39.035L127.514 36.93V34.115C127.514 34.0383 127.554 34 127.634 34H128.839C128.915 34 128.954 34.0383 128.954 34.115L128.894 37.5L128.954 40.88C128.954 40.96 128.915 41 128.839 41H127.129C127.065 41 127.019 40.9733 126.989 40.92L124.239 36.005L124.304 38.41V40.88C124.304 40.96 124.265 41 124.189 41H122.979Z" fill="black"/>
<path d="M6.318 29.324C5.172 29.324 4.173 29.162 3.321 28.838C2.469 28.514 1.791 28.034 1.287 27.398C0.789 26.762 0.492 25.982 0.396 25.058C0.39 24.986 0.405 24.932 0.441 24.896C0.477 24.854 0.528 24.833 0.594 24.833H3.6C3.732 24.833 3.81 24.896 3.834 25.022C3.948 25.646 4.203 26.114 4.599 26.426C4.995 26.732 5.586 26.885 6.372 26.885C7.08 26.885 7.614 26.78 7.974 26.57C8.334 26.36 8.514 26.03 8.514 25.58C8.514 25.274 8.391 25.028 8.145 24.842C7.905 24.65 7.596 24.503 7.218 24.401C6.84 24.299 6.321 24.185 5.661 24.059C4.617 23.861 3.759 23.648 3.087 23.42C2.421 23.192 1.845 22.811 1.359 22.277C0.873 21.743 0.63 21.008 0.63 20.072C0.63 19.268 0.831 18.569 1.233 17.975C1.641 17.375 2.238 16.913 3.024 16.589C3.816 16.265 4.773 16.103 5.895 16.103C7.455 16.103 8.718 16.409 9.684 17.021C10.656 17.633 11.253 18.59 11.475 19.892L11.484 19.946C11.484 20 11.466 20.042 11.43 20.072C11.394 20.102 11.343 20.117 11.277 20.117H8.262C8.196 20.117 8.145 20.102 8.109 20.072C8.073 20.036 8.049 19.985 8.037 19.919C7.959 19.481 7.731 19.145 7.353 18.911C6.981 18.677 6.48 18.56 5.85 18.56C5.28 18.56 4.824 18.656 4.482 18.848C4.146 19.04 3.978 19.337 3.978 19.739C3.978 20.021 4.098 20.252 4.338 20.432C4.578 20.606 4.878 20.741 5.238 20.837C5.604 20.933 6.123 21.044 6.795 21.17C7.845 21.362 8.712 21.572 9.396 21.8C10.086 22.022 10.677 22.397 11.169 22.925C11.667 23.453 11.916 24.182 11.916 25.112C11.916 26.006 11.694 26.768 11.25 27.398C10.806 28.028 10.164 28.508 9.324 28.838C8.484 29.162 7.482 29.324 6.318 29.324ZM24.3925 22.664L24.5185 28.784C24.5185 28.928 24.4495 29 24.3115 29H21.2695C21.1315 29 21.0625 28.928 21.0625 28.784L21.1435 23.501H16.3465L16.4275 28.784C16.4275 28.928 16.3585 29 16.2205 29H13.1785C13.0405 29 12.9715 28.928 12.9715 28.784L13.0975 22.664L12.9715 16.607C12.9715 16.469 13.0405 16.4 13.1785 16.4H16.2205C16.3585 16.4 16.4275 16.469 16.4275 16.607L16.3555 21.089H21.1345L21.0625 16.607C21.0625 16.469 21.1315 16.4 21.2695 16.4H24.3115C24.4495 16.4 24.5185 16.469 24.5185 16.607L24.3925 22.664ZM31.2996 29.297C29.5476 29.297 28.2096 28.877 27.2856 28.037C26.3676 27.197 25.9116 25.973 25.9176 24.365L25.9266 21.224L25.8546 16.607C25.8546 16.469 25.9236 16.4 26.0616 16.4H29.1576C29.2956 16.4 29.3646 16.469 29.3646 16.607L29.2836 21.134L29.3016 24.338C29.3076 25.142 29.4726 25.736 29.7966 26.12C30.1206 26.504 30.6216 26.696 31.2996 26.696C32.0556 26.696 32.6136 26.504 32.9736 26.12C33.3336 25.736 33.5136 25.142 33.5136 24.338V21.206L33.4506 16.607C33.4506 16.469 33.5196 16.4 33.6576 16.4H36.4116C36.5496 16.4 36.6186 16.469 36.6186 16.607L36.5646 21.224V24.365C36.5646 25.985 36.1206 27.212 35.2326 28.046C34.3506 28.88 33.0396 29.297 31.2996 29.297ZM38.1746 29C38.0366 29 37.9676 28.928 37.9676 28.784L38.0666 22.637L37.9676 16.607C37.9676 16.469 38.0366 16.4 38.1746 16.4H42.1706C42.2906 16.4 42.3716 16.457 42.4136 16.571L45.4016 24.77L48.1646 16.571C48.2006 16.457 48.2786 16.4 48.3986 16.4H52.2416C52.3796 16.4 52.4486 16.469 52.4486 16.607L52.3496 22.637L52.4486 28.784C52.4486 28.928 52.3796 29 52.2416 29H49.2716C49.2056 29 49.1516 28.982 49.1096 28.946C49.0736 28.904 49.0556 28.85 49.0556 28.784V23.96L49.1726 20.792L46.4546 28.829C46.4186 28.943 46.3406 29 46.2206 29H44.0156C43.8956 29 43.8146 28.943 43.7726 28.829L40.8026 20.639L40.9286 23.96V28.784C40.9286 28.928 40.8566 29 40.7126 29H38.1746ZM54.0653 29C53.9273 29 53.8583 28.928 53.8583 28.784L53.9753 22.79L53.8583 16.607C53.8583 16.469 53.9273 16.4 54.0653 16.4H57.0803C57.2183 16.4 57.2873 16.469 57.2873 16.607L57.2063 22.655L57.2873 26.579H62.0303C62.0963 26.579 62.1473 26.597 62.1833 26.633C62.2193 26.669 62.2373 26.72 62.2373 26.786V28.784C62.2373 28.85 62.2193 28.904 62.1833 28.946C62.1473 28.982 62.0963 29 62.0303 29H54.0653ZM60.1266 16.652C60.1086 16.616 60.0996 16.58 60.0996 16.544C60.0996 16.448 60.1596 16.4 60.2796 16.4H63.6276C63.7476 16.4 63.8286 16.454 63.8706 16.562L66.1206 21.773L68.3976 16.562C68.4396 16.454 68.5206 16.4 68.6406 16.4H71.7186C71.8386 16.4 71.8986 16.448 71.8986 16.544C71.8986 16.58 71.8896 16.616 71.8716 16.652L67.6506 24.905L67.7316 28.784C67.7316 28.928 67.6626 29 67.5246 29H64.4826C64.3446 29 64.2756 28.928 64.2756 28.784L64.3656 24.923L60.1266 16.652ZM83.1045 28.757L83.1225 28.838C83.1225 28.886 83.1045 28.925 83.0685 28.955C83.0385 28.985 82.9935 29 82.9335 29H79.9185C79.7925 29 79.7115 28.943 79.6755 28.829L78.8385 26.102H74.4375L73.6455 28.82C73.6095 28.94 73.5285 29 73.4025 29H70.4145C70.3545 29 70.3065 28.988 70.2705 28.964C70.2405 28.934 70.2255 28.895 70.2255 28.847C70.2255 28.835 70.2315 28.805 70.2435 28.757L74.4195 16.571C74.4555 16.457 74.5335 16.4 74.6535 16.4H78.8205C78.9405 16.4 79.0185 16.457 79.0545 16.571L83.1045 28.757ZM78.0465 23.501L76.5795 18.749L75.1845 23.501H78.0465ZM84.0711 29C83.9331 29 83.8641 28.928 83.8641 28.784L83.9631 22.754L83.8641 16.607C83.8641 16.469 83.9331 16.4 84.0711 16.4H87.5361C87.6501 16.4 87.7341 16.448 87.7881 16.544L92.1981 24.365L92.1081 22.034V16.607C92.1081 16.469 92.1771 16.4 92.3151 16.4H94.9701C95.1081 16.4 95.1771 16.469 95.1771 16.607L95.0781 22.754L95.1861 28.784C95.1861 28.928 95.1171 29 94.9791 29H91.3971C91.2831 29 91.1991 28.952 91.1451 28.856L86.8431 21.098L86.9421 23.789L86.9511 28.784C86.9511 28.928 86.8791 29 86.7351 29H84.0711ZM102.207 29.324C101.061 29.324 100.062 29.162 99.2097 28.838C98.3577 28.514 97.6797 28.034 97.1757 27.398C96.6777 26.762 96.3807 25.982 96.2847 25.058C96.2787 24.986 96.2937 24.932 96.3297 24.896C96.3657 24.854 96.4167 24.833 96.4827 24.833H99.4887C99.6207 24.833 99.6987 24.896 99.7227 25.022C99.8367 25.646 100.092 26.114 100.488 26.426C100.884 26.732 101.475 26.885 102.261 26.885C102.969 26.885 103.503 26.78 103.863 26.57C104.223 26.36 104.403 26.03 104.403 25.58C104.403 25.274 104.28 25.028 104.034 24.842C103.794 24.65 103.485 24.503 103.107 24.401C102.729 24.299 102.21 24.185 101.55 24.059C100.506 23.861 99.6477 23.648 98.9757 23.42C98.3097 23.192 97.7337 22.811 97.2477 22.277C96.7617 21.743 96.5187 21.008 96.5187 20.072C96.5187 19.268 96.7197 18.569 97.1217 17.975C97.5297 17.375 98.1267 16.913 98.9127 16.589C99.7047 16.265 100.662 16.103 101.784 16.103C103.344 16.103 104.607 16.409 105.573 17.021C106.545 17.633 107.142 18.59 107.364 19.892L107.373 19.946C107.373 20 107.355 20.042 107.319 20.072C107.283 20.102 107.232 20.117 107.166 20.117H104.151C104.085 20.117 104.034 20.102 103.998 20.072C103.962 20.036 103.938 19.985 103.926 19.919C103.848 19.481 103.62 19.145 103.242 18.911C102.87 18.677 102.369 18.56 101.739 18.56C101.169 18.56 100.713 18.656 100.371 18.848C100.035 19.04 99.8667 19.337 99.8667 19.739C99.8667 20.021 99.9867 20.252 100.227 20.432C100.467 20.606 100.767 20.741 101.127 20.837C101.493 20.933 102.012 21.044 102.684 21.17C103.734 21.362 104.601 21.572 105.285 21.8C105.975 22.022 106.566 22.397 107.058 22.925C107.556 23.453 107.805 24.182 107.805 25.112C107.805 26.006 107.583 26.768 107.139 27.398C106.695 28.028 106.053 28.508 105.213 28.838C104.373 29.162 103.371 29.324 102.207 29.324ZM120.146 28.739C120.176 28.775 120.191 28.817 120.191 28.865C120.191 28.907 120.176 28.94 120.146 28.964C120.116 28.988 120.071 29 120.011 29H116.447C116.351 29 116.267 28.955 116.195 28.865L113.036 24.149L112.154 25.256L112.199 28.784C112.199 28.928 112.13 29 111.992 29H109.067C108.929 29 108.86 28.928 108.86 28.784L108.977 22.691L108.869 16.607C108.869 16.469 108.938 16.4 109.076 16.4H111.992C112.13 16.4 112.199 16.469 112.199 16.607L112.136 21.134L115.331 16.535C115.391 16.445 115.475 16.4 115.583 16.4H118.949C119.009 16.4 119.054 16.412 119.084 16.436C119.12 16.46 119.138 16.49 119.138 16.526C119.138 16.55 119.117 16.595 119.075 16.661L115.106 21.566L120.146 28.739ZM119.4 16.652C119.382 16.616 119.373 16.58 119.373 16.544C119.373 16.448 119.433 16.4 119.553 16.4H122.901C123.021 16.4 123.102 16.454 123.144 16.562L125.394 21.773L127.671 16.562C127.713 16.454 127.794 16.4 127.914 16.4H130.992C131.112 16.4 131.172 16.448 131.172 16.544C131.172 16.58 131.163 16.616 131.145 16.652L126.924 24.905L127.005 28.784C127.005 28.928 126.936 29 126.798 29H123.756C123.618 29 123.549 28.928 123.549 28.784L123.639 24.923L119.4 16.652Z" fill="black"/>
<path d="M12.915 12.757L12.933 12.838C12.933 12.886 12.915 12.925 12.879 12.955C12.849 12.985 12.804 13 12.744 13H9.729C9.603 13 9.522 12.943 9.486 12.829L8.649 10.102H4.248L3.456 12.82C3.42 12.94 3.339 13 3.213 13H0.225C0.165 13 0.117 12.988 0.081 12.964C0.051 12.934 0.036 12.895 0.036 12.847C0.036 12.835 0.042 12.805 0.054 12.757L4.23 0.571C4.266 0.456999 4.344 0.399999 4.464 0.399999H8.631C8.751 0.399999 8.829 0.456999 8.865 0.571L12.915 12.757ZM7.857 7.501L6.39 2.749L4.995 7.501H7.857ZM13.8817 13C13.7437 13 13.6747 12.928 13.6747 12.784L13.7917 6.79L13.6747 0.606999C13.6747 0.468999 13.7437 0.399999 13.8817 0.399999H16.8967C17.0347 0.399999 17.1037 0.468999 17.1037 0.606999L17.0227 6.655L17.1037 10.579H21.8467C21.9127 10.579 21.9637 10.597 21.9997 10.633C22.0357 10.669 22.0537 10.72 22.0537 10.786V12.784C22.0537 12.85 22.0357 12.904 21.9997 12.946C21.9637 12.982 21.9127 13 21.8467 13H13.8817ZM23.1981 13C23.0601 13 22.9911 12.928 22.9911 12.784L23.1171 6.808L22.9911 0.606999C22.9911 0.468999 23.0601 0.399999 23.1981 0.399999H32.0541C32.1201 0.399999 32.1711 0.417999 32.2071 0.454C32.2431 0.49 32.2611 0.541 32.2611 0.606999V2.596C32.2611 2.662 32.2431 2.716 32.2071 2.758C32.1711 2.794 32.1201 2.812 32.0541 2.812H26.4111L26.3301 5.179H31.4871C31.5531 5.179 31.6041 5.197 31.6401 5.233C31.6761 5.269 31.6941 5.32 31.6941 5.386V7.375C31.6941 7.441 31.6761 7.495 31.6401 7.537C31.6041 7.573 31.5531 7.591 31.4871 7.591H26.3301L26.4111 10.579H32.1981C32.2641 10.579 32.3151 10.597 32.3511 10.633C32.3871 10.669 32.4051 10.72 32.4051 10.786V12.784C32.4051 12.85 32.3871 12.904 32.3511 12.946C32.3151 12.982 32.2641 13 32.1981 13H23.1981ZM33.2032 13C33.1493 13 33.1043 12.988 33.0683 12.964C33.0383 12.94 33.0233 12.91 33.0233 12.874C33.0233 12.838 33.0383 12.796 33.0683 12.748L37.0103 6.484L33.3113 0.651999C33.2813 0.603999 33.2663 0.561999 33.2663 0.526C33.2663 0.489999 33.2813 0.459999 33.3113 0.436C33.3473 0.411999 33.3923 0.399999 33.4463 0.399999H36.8663C36.9803 0.399999 37.0643 0.447999 37.1183 0.543999L39.0443 3.901L40.9793 0.543999C41.0393 0.447999 41.1263 0.399999 41.2403 0.399999H44.4983C44.5583 0.399999 44.6033 0.411999 44.6333 0.436C44.6693 0.459999 44.6873 0.492999 44.6873 0.534999C44.6873 0.564999 44.6723 0.603999 44.6423 0.651999L40.9343 6.466L44.9213 12.748C44.9513 12.796 44.9663 12.835 44.9663 12.865C44.9663 12.907 44.9483 12.94 44.9123 12.964C44.8823 12.988 44.8373 13 44.7773 13H41.3483C41.2343 13 41.1503 12.952 41.0963 12.856L38.9273 8.95L36.7223 12.856C36.6623 12.952 36.5783 13 36.4703 13H33.2032ZM58.2666 12.757L58.2846 12.838C58.2846 12.886 58.2666 12.925 58.2306 12.955C58.2006 12.985 58.1556 13 58.0956 13H55.0806C54.9546 13 54.8736 12.943 54.8376 12.829L54.0006 10.102H49.5996L48.8076 12.82C48.7716 12.94 48.6906 13 48.5646 13H45.5766C45.5166 13 45.4686 12.988 45.4326 12.964C45.4026 12.934 45.3876 12.895 45.3876 12.847C45.3876 12.835 45.3936 12.805 45.4056 12.757L49.5816 0.571C49.6176 0.456999 49.6956 0.399999 49.8156 0.399999H53.9826C54.1026 0.399999 54.1806 0.456999 54.2166 0.571L58.2666 12.757ZM53.2086 7.501L51.7416 2.749L50.3466 7.501H53.2086ZM59.2332 13C59.0952 13 59.0262 12.928 59.0262 12.784L59.1252 6.754L59.0262 0.606999C59.0262 0.468999 59.0952 0.399999 59.2332 0.399999H62.6982C62.8122 0.399999 62.8962 0.447999 62.9502 0.543999L67.3602 8.365L67.2702 6.034V0.606999C67.2702 0.468999 67.3392 0.399999 67.4772 0.399999H70.1322C70.2702 0.399999 70.3392 0.468999 70.3392 0.606999L70.2402 6.754L70.3482 12.784C70.3482 12.928 70.2792 13 70.1412 13H66.5592C66.4452 13 66.3612 12.952 66.3072 12.856L62.0052 5.098L62.1042 7.789L62.1132 12.784C62.1132 12.928 62.0412 13 61.8972 13H59.2332ZM71.9598 13C71.8218 13 71.7528 12.928 71.7528 12.784L71.8698 6.79L71.7528 0.606999C71.7528 0.468999 71.8218 0.399999 71.9598 0.399999H76.5948C77.8788 0.399999 79.0398 0.624999 80.0778 1.075C81.1218 1.519 81.9558 2.221 82.5798 3.181C83.2038 4.141 83.5158 5.359 83.5158 6.835C83.5158 8.287 83.2068 9.472 82.5888 10.39C81.9768 11.308 81.1548 11.974 80.1228 12.388C79.0968 12.796 77.9328 13 76.6308 13H71.9598ZM75.0918 6.727L75.1998 10.579H76.7748C77.7948 10.579 78.5958 10.276 79.1778 9.67C79.7598 9.058 80.0508 8.104 80.0508 6.808C80.0508 5.908 79.9098 5.161 79.6278 4.567C79.3458 3.967 78.9528 3.526 78.4488 3.244C77.9508 2.956 77.3688 2.812 76.7028 2.812H75.1998L75.0918 6.727ZM84.8621 13C84.7241 13 84.6551 12.928 84.6551 12.784L84.7811 6.808L84.6551 0.606999C84.6551 0.468999 84.7241 0.399999 84.8621 0.399999H93.7181C93.7841 0.399999 93.8351 0.417999 93.8711 0.454C93.9071 0.49 93.9251 0.541 93.9251 0.606999V2.596C93.9251 2.662 93.9071 2.716 93.8711 2.758C93.8351 2.794 93.7841 2.812 93.7181 2.812H88.0751L87.9941 5.179H93.1511C93.2171 5.179 93.2681 5.197 93.3041 5.233C93.3401 5.269 93.3581 5.32 93.3581 5.386V7.375C93.3581 7.441 93.3401 7.495 93.3041 7.537C93.2681 7.573 93.2171 7.591 93.1511 7.591H87.9941L88.0751 10.579H93.8621C93.9281 10.579 93.9791 10.597 94.0151 10.633C94.0511 10.669 94.0691 10.72 94.0691 10.786V12.784C94.0691 12.85 94.0511 12.904 94.0151 12.946C93.9791 12.982 93.9281 13 93.8621 13H84.8621ZM106.371 12.748C106.401 12.796 106.416 12.838 106.416 12.874C106.416 12.91 106.398 12.94 106.362 12.964C106.332 12.988 106.29 13 106.236 13H102.825C102.711 13 102.624 12.952 102.564 12.856L100.755 9.841L99.9086 8.572H98.5766L98.6486 12.784C98.6486 12.928 98.5796 13 98.4416 13H95.4266C95.2886 13 95.2196 12.928 95.2196 12.784L95.3186 6.799L95.2196 0.606999C95.2196 0.468999 95.2886 0.399999 95.4266 0.399999H100.854C102.546 0.399999 103.839 0.744999 104.733 1.435C105.633 2.125 106.083 3.145 106.083 4.495C106.083 5.383 105.852 6.142 105.39 6.772C104.928 7.402 104.262 7.867 103.392 8.167L106.371 12.748ZM98.6216 2.767L98.5676 6.205H101.034C101.538 6.205 101.964 6.07 102.312 5.8C102.666 5.53 102.843 5.119 102.843 4.567C102.843 3.367 102.21 2.767 100.944 2.767H98.6216Z" fill="black"/>
</svg>
