<svg width="89" height="14" viewBox="0 0 89 14" fill="none" xmlns="http://www.w3.org/2000/svg">
<path d="M5.61 1.1C7.157 1.1 8.33567 1.4315 9.146 2.0945C9.95633 2.7575 10.3615 3.73783 10.3615 5.0355C10.3615 5.8685 10.1717 6.591 9.792 7.203C9.418 7.80933 8.87117 8.27683 8.1515 8.6055C7.4375 8.93417 6.579 9.0985 5.576 9.0985H3.859L3.927 12.796C3.927 12.932 3.86183 13 3.7315 13H0.8585C0.728167 13 0.663 12.932 0.663 12.796L0.7735 7.1265L0.663 1.2955C0.663 1.16517 0.728167 1.1 0.8585 1.1H5.61ZM5.5505 6.8545C6.08317 6.8545 6.50817 6.71283 6.8255 6.4295C7.14283 6.1405 7.3015 5.69567 7.3015 5.095C7.3015 4.50567 7.14283 4.0665 6.8255 3.7775C6.51383 3.48283 6.06617 3.3355 5.4825 3.3355H3.893L3.8335 6.8545H5.5505ZM21.8693 12.762C21.8976 12.8073 21.9118 12.847 21.9118 12.881C21.9118 12.915 21.8948 12.9433 21.8608 12.966C21.8325 12.9887 21.7928 13 21.7418 13H18.5203C18.4126 13 18.3305 12.9547 18.2738 12.864L16.5653 10.0165L15.7663 8.818H14.5083L14.5763 12.796C14.5763 12.932 14.5111 13 14.3808 13H11.5333C11.403 13 11.3378 12.932 11.3378 12.796L11.4313 7.1435L11.3378 1.2955C11.3378 1.16517 11.403 1.1 11.5333 1.1H16.6588C18.2568 1.1 19.478 1.42583 20.3223 2.0775C21.1723 2.72917 21.5973 3.6925 21.5973 4.9675C21.5973 5.80617 21.3791 6.523 20.9428 7.118C20.5065 7.713 19.8775 8.15217 19.0558 8.4355L21.8693 12.762ZM14.5508 3.3355L14.4998 6.5825H16.8288C17.3048 6.5825 17.7071 6.455 18.0358 6.2C18.3701 5.945 18.5373 5.55683 18.5373 5.0355C18.5373 3.90217 17.9395 3.3355 16.7438 3.3355H14.5508ZM28.5688 13.2805C27.3334 13.2805 26.2454 13.017 25.3048 12.49C24.3698 11.963 23.6444 11.232 23.1288 10.297C22.6188 9.35633 22.3638 8.28817 22.3638 7.0925C22.3638 5.84017 22.6159 4.74083 23.1203 3.7945C23.6303 2.84817 24.3528 2.11717 25.2878 1.6015C26.2228 1.08017 27.3164 0.819499 28.5688 0.819499C29.8098 0.819499 30.8978 1.0745 31.8328 1.5845C32.7734 2.0945 33.5016 2.82267 34.0173 3.769C34.5329 4.71533 34.7908 5.82317 34.7908 7.0925C34.7908 8.2825 34.5329 9.34783 34.0173 10.2885C33.5073 11.2235 32.7791 11.9573 31.8328 12.49C30.8921 13.017 29.8041 13.2805 28.5688 13.2805ZM28.5943 10.909C29.5406 10.909 30.2631 10.5747 30.7618 9.906C31.2661 9.23167 31.5183 8.29383 31.5183 7.0925C31.5183 5.87983 31.2661 4.92783 30.7618 4.2365C30.2631 3.5395 29.5321 3.191 28.5688 3.191C27.6054 3.191 26.8744 3.531 26.3758 4.211C25.8828 4.891 25.6363 5.8515 25.6363 7.0925C25.6363 7.8745 25.7496 8.55167 25.9763 9.124C26.2029 9.69633 26.5373 10.1383 26.9793 10.45C27.4269 10.756 27.9653 10.909 28.5943 10.909ZM39.8197 13.2635C38.9074 13.2635 38.131 13.085 37.4907 12.728C36.8504 12.371 36.3602 11.8667 36.0202 11.215C35.6859 10.5577 35.5045 9.78417 35.4762 8.8945C35.4762 8.7585 35.5414 8.6905 35.6717 8.6905H38.3662C38.4285 8.6905 38.4767 8.71033 38.5107 8.75C38.5504 8.784 38.5702 8.835 38.5702 8.903C38.5872 9.56033 38.6977 10.0505 38.9017 10.3735C39.1114 10.6908 39.4259 10.8495 39.8452 10.8495C40.1342 10.8495 40.3665 10.7787 40.5422 10.637C40.7179 10.4953 40.8454 10.2715 40.9247 9.9655C41.0097 9.65383 41.055 9.2345 41.0607 8.7075L41.0777 5.452L40.9927 1.2955C40.9927 1.16517 41.0579 1.1 41.1882 1.1H44.1122C44.2425 1.1 44.3077 1.16517 44.3077 1.2955L44.2312 5.452L44.2567 8.733C44.268 10.246 43.894 11.3793 43.1347 12.133C42.3754 12.8867 41.2704 13.2635 39.8197 13.2635ZM45.7823 13C45.652 13 45.5868 12.932 45.5868 12.796L45.7058 7.152L45.5868 1.2955C45.5868 1.16517 45.652 1.1 45.7823 1.1H54.1463C54.2087 1.1 54.2568 1.117 54.2908 1.151C54.3248 1.185 54.3418 1.23317 54.3418 1.2955V3.174C54.3418 3.23633 54.3248 3.28733 54.2908 3.327C54.2568 3.361 54.2087 3.378 54.1463 3.378H48.8168L48.7403 5.6135H53.6108C53.6732 5.6135 53.7213 5.6305 53.7553 5.6645C53.7893 5.6985 53.8063 5.74667 53.8063 5.809V7.6875C53.8063 7.74983 53.7893 7.80083 53.7553 7.8405C53.7213 7.8745 53.6732 7.8915 53.6108 7.8915H48.7403L48.8168 10.7135H54.2823C54.3447 10.7135 54.3928 10.7305 54.4268 10.7645C54.4608 10.7985 54.4778 10.8467 54.4778 10.909V12.796C54.4778 12.8583 54.4608 12.9093 54.4268 12.949C54.3928 12.983 54.3447 13 54.2823 13H45.7823ZM61.1398 13.2805C59.9102 13.2805 58.8278 13.017 57.8928 12.49C56.9635 11.963 56.2467 11.232 55.7423 10.297C55.238 9.362 54.9858 8.2995 54.9858 7.1095C54.9858 5.85717 55.238 4.75783 55.7423 3.8115C56.2523 2.8595 56.9692 2.12283 57.8928 1.6015C58.8165 1.08017 59.8903 0.819499 61.1143 0.819499C62.5707 0.819499 63.7748 1.168 64.7268 1.865C65.6788 2.55633 66.3163 3.63867 66.6393 5.112L66.6478 5.163C66.6478 5.27633 66.5855 5.333 66.4608 5.333H63.7578C63.6445 5.333 63.5737 5.2735 63.5453 5.1545C63.2337 3.8455 62.4092 3.191 61.0718 3.191C60.1708 3.191 59.4795 3.52817 58.9978 4.2025C58.5162 4.87117 58.2753 5.8175 58.2753 7.0415C58.2753 8.27683 58.519 9.23167 59.0063 9.906C59.4937 10.5747 60.1935 10.909 61.1058 10.909C62.4715 10.909 63.2932 10.2205 63.5708 8.8435C63.5935 8.71883 63.6672 8.6565 63.7918 8.6565H66.5458C66.6025 8.6565 66.645 8.6735 66.6733 8.7075C66.7073 8.73583 66.7243 8.7755 66.7243 8.8265C66.7243 8.85483 66.7215 8.8775 66.7158 8.8945C66.3928 10.3848 65.7553 11.4898 64.8033 12.2095C63.857 12.9235 62.6358 13.2805 61.1398 13.2805ZM70.3212 13C70.1908 13 70.1257 12.932 70.1257 12.796L70.2532 7.016L70.1682 3.378H67.0147C66.9523 3.378 66.9042 3.361 66.8702 3.327C66.8362 3.28733 66.8192 3.23633 66.8192 3.174V1.2955C66.8192 1.23317 66.8362 1.185 66.8702 1.151C66.9098 1.117 66.958 1.1 67.0147 1.1H76.5517C76.614 1.1 76.6622 1.117 76.6962 1.151C76.7358 1.185 76.7557 1.23317 76.7557 1.2955V3.174C76.7557 3.23633 76.7358 3.28733 76.6962 3.327C76.6622 3.361 76.614 3.378 76.5517 3.378H73.4067L73.3217 7.016L73.4492 12.796C73.4492 12.932 73.384 13 73.2537 13H70.3212ZM82.7492 13.306C81.6669 13.306 80.7234 13.153 79.9187 12.847C79.1141 12.541 78.4737 12.0877 77.9977 11.487C77.5274 10.8863 77.2469 10.1497 77.1562 9.277C77.1506 9.209 77.1647 9.158 77.1987 9.124C77.2327 9.08433 77.2809 9.0645 77.3432 9.0645H80.1822C80.3069 9.0645 80.3806 9.124 80.4032 9.243C80.5109 9.83233 80.7517 10.2743 81.1257 10.569C81.4997 10.858 82.0579 11.0025 82.8002 11.0025C83.4689 11.0025 83.9732 10.9033 84.3132 10.705C84.6532 10.5067 84.8232 10.195 84.8232 9.77C84.8232 9.481 84.7071 9.24867 84.4747 9.073C84.2481 8.89167 83.9562 8.75283 83.5992 8.6565C83.2422 8.56017 82.7521 8.4525 82.1287 8.3335C81.1427 8.1465 80.3324 7.94533 79.6977 7.73C79.0687 7.51467 78.5247 7.15483 78.0657 6.6505C77.6067 6.14617 77.3772 5.452 77.3772 4.568C77.3772 3.80867 77.5671 3.1485 77.9467 2.5875C78.3321 2.02083 78.8959 1.5845 79.6382 1.2785C80.3862 0.972499 81.2901 0.819499 82.3497 0.819499C83.8231 0.819499 85.0159 1.1085 85.9282 1.6865C86.8462 2.2645 87.4101 3.16833 87.6197 4.398L87.6282 4.449C87.6282 4.5 87.6112 4.53967 87.5772 4.568C87.5432 4.59633 87.4951 4.6105 87.4327 4.6105H84.5852C84.5229 4.6105 84.4747 4.59633 84.4407 4.568C84.4067 4.534 84.3841 4.48583 84.3727 4.4235C84.2991 4.00983 84.0837 3.6925 83.7267 3.4715C83.3754 3.2505 82.9022 3.14 82.3072 3.14C81.7689 3.14 81.3382 3.23067 81.0152 3.412C80.6979 3.59333 80.5392 3.87383 80.5392 4.2535C80.5392 4.51983 80.6526 4.738 80.8792 4.908C81.1059 5.07233 81.3892 5.19983 81.7292 5.2905C82.0749 5.38117 82.5651 5.486 83.1997 5.605C84.1914 5.78633 85.0102 5.98467 85.6562 6.2C86.3079 6.40967 86.8661 6.76383 87.3307 7.2625C87.8011 7.76117 88.0362 8.44967 88.0362 9.328C88.0362 10.1723 87.8266 10.892 87.4072 11.487C86.9879 12.082 86.3816 12.5353 85.5882 12.847C84.7949 13.153 83.8486 13.306 82.7492 13.306Z" fill="black"/>
</svg>
