<svg width="84" height="14" viewBox="0 0 84 14" fill="none" xmlns="http://www.w3.org/2000/svg">
<path d="M5.389 1.1C6.83967 1.1 7.956 1.42583 8.738 2.0775C9.52 2.7235 9.911 3.67267 9.911 4.925C9.911 5.75233 9.72967 6.46067 9.367 7.05C9.01 7.63933 8.48867 8.08983 7.803 8.4015C7.123 8.71317 6.31267 8.869 5.372 8.869H3.3235L3.4 12.796C3.4 12.932 3.33767 13 3.213 13H0.9265C0.796167 13 0.731 12.932 0.731 12.796L0.8415 7.05L0.731 1.2955C0.731 1.16517 0.796167 1.1 0.9265 1.1H5.389ZM5.559 6.982C6.103 6.982 6.54783 6.81767 6.8935 6.489C7.23917 6.15467 7.412 5.65033 7.412 4.976C7.412 4.30733 7.24767 3.80867 6.919 3.48C6.59033 3.15133 6.11433 2.987 5.491 2.987H3.3745L3.3065 6.982H5.559ZM20.9022 12.762C20.9305 12.8073 20.9447 12.847 20.9447 12.881C20.9447 12.915 20.9277 12.9433 20.8937 12.966C20.8653 12.9887 20.8257 13 20.7747 13H18.2077C18.1 13 18.0178 12.9547 17.9612 12.864L16.4482 10.348L15.2837 8.58H13.5667L13.6432 12.796C13.6432 12.932 13.578 13 13.4477 13H11.1697C11.0393 13 10.9742 12.932 10.9742 12.796L11.0847 7.05L10.9742 1.2955C10.9742 1.16517 11.0393 1.1 11.1697 1.1H15.9722C17.4795 1.1 18.6383 1.41733 19.4487 2.052C20.259 2.681 20.6642 3.61033 20.6642 4.84C20.6642 5.71267 20.4347 6.4465 19.9757 7.0415C19.5223 7.63083 18.8678 8.053 18.0122 8.308L20.9022 12.762ZM13.6177 2.987L13.5412 6.693H16.1422C16.7315 6.693 17.216 6.54567 17.5957 6.251C17.9753 5.95633 18.1652 5.503 18.1652 4.891C18.1652 4.25633 17.9838 3.78033 17.6212 3.463C17.2642 3.14567 16.7485 2.987 16.0742 2.987H13.6177ZM27.3764 13.255C26.1807 13.255 25.1295 12.9943 24.2229 12.473C23.3162 11.9517 22.6135 11.2263 22.1149 10.297C21.6219 9.362 21.3754 8.291 21.3754 7.084C21.3754 5.83167 21.6219 4.73517 22.1149 3.7945C22.6079 2.85383 23.3049 2.1285 24.2059 1.6185C25.1125 1.10283 26.1694 0.844999 27.3764 0.844999C28.5777 0.844999 29.6317 1.1 30.5384 1.61C31.445 2.11433 32.1477 2.83683 32.6464 3.7775C33.145 4.71817 33.3944 5.82033 33.3944 7.084C33.3944 8.291 33.145 9.362 32.6464 10.297C32.1477 11.2263 31.4422 11.9517 30.5299 12.473C29.6232 12.9943 28.572 13.255 27.3764 13.255ZM27.3934 11.266C28.1017 11.266 28.7052 11.0988 29.2039 10.7645C29.7025 10.4302 30.0794 9.95133 30.3344 9.328C30.595 8.699 30.7254 7.951 30.7254 7.084C30.7254 6.21133 30.595 5.45767 30.3344 4.823C30.0794 4.18833 29.6997 3.69817 29.1954 3.3525C28.6967 3.00683 28.0904 2.834 27.3764 2.834C26.6567 2.834 26.0475 3.004 25.5489 3.344C25.0559 3.67833 24.6819 4.16567 24.4269 4.806C24.1719 5.44067 24.0444 6.2 24.0444 7.084C24.0444 7.94533 24.1747 8.6905 24.4354 9.3195C24.696 9.94283 25.0757 10.4245 25.5744 10.7645C26.0787 11.0988 26.685 11.266 27.3934 11.266ZM38.0597 13.255C36.762 13.255 35.7675 12.8725 35.0762 12.1075C34.3905 11.3368 34.0307 10.2658 33.9967 8.8945C33.9967 8.76417 34.0647 8.699 34.2007 8.699H36.3172C36.4475 8.699 36.5127 8.767 36.5127 8.903C36.5353 9.685 36.6685 10.2687 36.9122 10.654C37.1558 11.0393 37.544 11.232 38.0767 11.232C38.4507 11.232 38.7482 11.1442 38.9692 10.9685C39.1902 10.7928 39.3488 10.5237 39.4452 10.161C39.5415 9.79833 39.5953 9.32233 39.6067 8.733L39.6492 6.0045L39.5387 1.2955C39.5387 1.16517 39.6038 1.1 39.7342 1.1H42.0802C42.2105 1.1 42.2757 1.16517 42.2757 1.2955L42.1737 6.0045L42.2077 8.75C42.2303 10.246 41.8875 11.3708 41.1792 12.1245C40.4765 12.8782 39.4367 13.255 38.0597 13.255ZM43.8083 13C43.678 13 43.6128 12.932 43.6128 12.796L43.7403 7.05L43.6128 1.2955C43.6128 1.16517 43.678 1.1 43.8083 1.1H51.7643C51.8267 1.1 51.8748 1.117 51.9088 1.151C51.9428 1.185 51.9598 1.23317 51.9598 1.2955V2.817C51.9598 2.87933 51.9428 2.93033 51.9088 2.97C51.8748 3.004 51.8267 3.021 51.7643 3.021H46.2903L46.1798 5.758H51.2713C51.3337 5.758 51.3818 5.775 51.4158 5.809C51.4498 5.843 51.4668 5.89117 51.4668 5.9535V7.475C51.4668 7.53733 51.4498 7.58833 51.4158 7.628C51.3818 7.662 51.3337 7.679 51.2713 7.679H46.1798L46.2903 11.079H51.9003C51.9627 11.079 52.0108 11.096 52.0448 11.13C52.0788 11.164 52.0958 11.2122 52.0958 11.2745V12.796C52.0958 12.8583 52.0788 12.9093 52.0448 12.949C52.0108 12.983 51.9627 13 51.9003 13H43.8083ZM58.5189 13.255C57.3232 13.255 56.2777 12.9972 55.3824 12.4815C54.4871 11.9602 53.7986 11.2348 53.3169 10.3055C52.8409 9.3705 52.6029 8.30233 52.6029 7.101C52.6029 5.84867 52.8437 4.75217 53.3254 3.8115C53.8127 2.86517 54.5012 2.13417 55.3909 1.6185C56.2806 1.10283 57.3176 0.844999 58.5019 0.844999C59.8732 0.844999 61.0179 1.17083 61.9359 1.8225C62.8539 2.4685 63.4801 3.531 63.8144 5.01L63.8229 5.061C63.8229 5.17433 63.7606 5.231 63.6359 5.231H61.5024C61.3891 5.231 61.3182 5.1715 61.2899 5.0525C61.1142 4.33283 60.7884 3.78317 60.3124 3.4035C59.8421 3.02383 59.2272 2.834 58.4679 2.834C57.7822 2.834 57.2014 3.004 56.7254 3.344C56.2494 3.67833 55.8867 4.16567 55.6374 4.806C55.3937 5.44067 55.2719 6.2 55.2719 7.084C55.2719 7.96233 55.3966 8.716 55.6459 9.345C55.8952 9.96833 56.2579 10.4443 56.7339 10.773C57.2099 11.1017 57.7822 11.266 58.4509 11.266C59.2612 11.266 59.9016 11.0563 60.3719 10.637C60.8422 10.2177 61.1596 9.6 61.3239 8.784C61.3466 8.65933 61.4202 8.597 61.5449 8.597H63.7209C63.7776 8.597 63.8201 8.614 63.8484 8.648C63.8824 8.682 63.8994 8.72733 63.8994 8.784C63.8994 8.818 63.8966 8.8435 63.8909 8.8605C63.5622 10.3962 62.9446 11.5125 62.0379 12.2095C61.1312 12.9065 59.9582 13.255 58.5189 13.255ZM67.4151 13C67.2791 13 67.2139 12.932 67.2196 12.796L67.3726 7.05L67.2451 3.021H64.0321C63.9698 3.021 63.9216 3.004 63.8876 2.97C63.8536 2.93033 63.8366 2.87933 63.8366 2.817V1.2955C63.8366 1.23317 63.8536 1.185 63.8876 1.151C63.9273 1.117 63.9754 1.1 64.0321 1.1H73.1526C73.2149 1.1 73.2631 1.117 73.2971 1.151C73.3368 1.185 73.3566 1.23317 73.3566 1.2955V2.817C73.3566 2.87933 73.3368 2.93033 73.2971 2.97C73.2631 3.004 73.2149 3.021 73.1526 3.021H69.9396L69.8121 7.05L69.9651 12.796C69.9764 12.932 69.9141 13 69.7781 13H67.4151ZM78.9318 13.272C77.8778 13.272 76.9541 13.1247 76.1608 12.83C75.3731 12.5297 74.7498 12.0763 74.2908 11.47C73.8375 10.858 73.591 10.0987 73.5513 9.192C73.5456 9.056 73.6108 8.988 73.7468 8.988H76.0588C76.1835 8.988 76.2543 9.05033 76.2713 9.175C76.328 9.63967 76.447 10.0307 76.6283 10.348C76.8153 10.6597 77.0986 10.9033 77.4783 11.079C77.858 11.249 78.3595 11.334 78.9828 11.334C79.7761 11.334 80.374 11.2093 80.7763 10.96C81.1786 10.705 81.3798 10.3027 81.3798 9.753C81.3798 9.39033 81.2495 9.10133 80.9888 8.886C80.7281 8.67067 80.4023 8.50917 80.0113 8.4015C79.6203 8.28817 79.0735 8.1635 78.3708 8.0275C77.4018 7.84617 76.6113 7.6535 75.9993 7.4495C75.393 7.2455 74.8716 6.9055 74.4353 6.4295C73.999 5.9535 73.7808 5.299 73.7808 4.466C73.7808 3.72367 73.9678 3.0805 74.3418 2.5365C74.7158 1.9925 75.2598 1.576 75.9738 1.287C76.6935 0.992333 77.5548 0.844999 78.5578 0.844999C79.9915 0.844999 81.1446 1.13683 82.0173 1.7205C82.8956 2.2985 83.4283 3.19383 83.6153 4.4065C83.621 4.4745 83.6068 4.52833 83.5728 4.568C83.5388 4.602 83.4906 4.619 83.4283 4.619H81.1163C80.9916 4.619 80.9208 4.55383 80.9038 4.4235C80.8245 3.90217 80.5751 3.50267 80.1558 3.225C79.7365 2.94167 79.1698 2.8 78.4558 2.8C77.8098 2.8 77.297 2.91617 76.9173 3.1485C76.5376 3.38083 76.3478 3.735 76.3478 4.211C76.3478 4.54533 76.4753 4.8145 76.7303 5.0185C76.9853 5.21683 77.3055 5.36983 77.6908 5.4775C78.0818 5.58517 78.6145 5.6985 79.2888 5.8175C80.2805 6.0045 81.0851 6.2 81.7028 6.404C82.3261 6.60233 82.8616 6.94233 83.3093 7.424C83.757 7.9 83.9808 8.55733 83.9808 9.396C83.9808 10.2233 83.7768 10.9288 83.3688 11.5125C82.9665 12.0905 82.3856 12.5297 81.6263 12.83C80.8726 13.1247 79.9745 13.272 78.9318 13.272Z" fill="black"/>
</svg>
