<svg width="25" height="25" viewBox="0 0 25 25" fill="none" xmlns="http://www.w3.org/2000/svg">
<rect x="1.86328" y="1.86328" width="21.8937" height="21.8937" rx="8" fill="white"/>
<path d="M20.8333 0H4.16667C1.875 0 0 1.875 0 4.16667V20.8333C0 23.125 1.875 25 4.16667 25H20.8333C23.125 25 25 23.125 25 20.8333V4.16667C25 1.875 23.125 0 20.8333 0ZM11.9779 12.7213C11.1102 13.589 9.74646 13.9965 8.20576 13.9965C7.79842 13.9965 7.42655 13.9786 7.14314 13.9255V18.4238H4.98272V6.6469C5.76193 6.50527 6.84226 6.39891 8.31197 6.39891C9.906 6.39891 11.0748 6.73541 11.8364 7.37303C12.5448 7.95752 13.0052 8.89607 13.0052 10.0118C13.0051 11.1452 12.651 12.0837 11.9779 12.7213ZM16.5108 18.601C15.4659 18.601 14.5273 18.353 13.8897 17.9988L14.3147 16.4227C14.8106 16.7237 15.7493 17.0426 16.5285 17.0426C17.4847 17.0426 17.9099 16.653 17.9099 16.0862C17.9099 15.5019 17.5557 15.2007 16.4931 14.8288C14.8105 14.2443 14.1024 13.3235 14.12 12.314C14.12 10.791 15.3774 9.60448 17.3785 9.60448C18.3349 9.60448 19.1673 9.85248 19.663 10.118L19.238 11.6587C18.8661 11.4463 18.1754 11.1629 17.4139 11.1629C16.6347 11.1629 16.2097 11.5348 16.2097 12.066C16.2097 12.6151 16.617 12.8808 17.715 13.2704C19.2734 13.8371 19.9996 14.634 20.0173 15.9092C20.0172 17.4676 18.7954 18.601 16.5108 18.601ZM10.8268 10.1003C10.8268 11.4994 9.83496 12.2963 8.20576 12.2963C7.76305 12.2963 7.40884 12.2786 7.14314 12.2078V8.16994C7.37347 8.11686 7.79847 8.06373 8.40067 8.06373C9.906 8.06373 10.8268 8.77215 10.8268 10.1003Z" fill="black"/>
</svg>
