<svg width="27" height="27" viewBox="0 0 27 27" fill="none" xmlns="http://www.w3.org/2000/svg">
<circle cx="13.5" cy="13.5" r="13.5" fill="black"/>
<path d="M15.3589 23.318V3.68164L7.62711 9.818H4.31348V17.1816H7.62711L15.3589 23.318Z" fill="white"/>
<path d="M16.4639 20.7525C19.5975 20.167 21.9866 17.1467 21.9866 13.4993C21.9866 9.85182 19.5975 6.8315 16.4639 6.24609V7.48687C18.9811 8.05755 20.882 10.5354 20.882 13.4993C20.882 16.4631 18.9811 18.941 16.4639 19.5117V20.7525Z" fill="white"/>
<path d="M16.4639 15.6123V16.955C17.7485 16.4481 18.673 15.0993 18.673 13.499C18.673 11.8986 17.7485 10.5498 16.4639 10.043V11.3856C17.1211 11.8115 17.5684 12.5945 17.5684 13.499C17.5684 14.4035 17.1211 15.1865 16.4639 15.6123Z" fill="white"/>
</svg>
