<svg width="25" height="25" viewBox="0 0 25 25" fill="none" xmlns="http://www.w3.org/2000/svg">
<path d="M12.5261 5.06328C9.14683 5.69177 6.94445 6.98306 5.50647 8.19499C5.32011 8.92032 5.22431 9.66705 5.22139 10.4172C5.22139 15.5588 9.49561 19.7265 14.7671 19.7265C15.5535 19.7265 16.2991 19.6214 17.0081 19.4434C18.5307 17.4614 19.7765 14.0112 20.094 11.1551C20.4271 8.1671 21.0892 7.26191 21.9131 6.67204C22.2055 6.4629 22.5125 6.30309 22.8373 6.22695C21.9131 4.17541 20.2492 2.57268 18.1965 1.75676C18.2018 1.78036 18.2112 1.79966 18.2164 1.82326C18.6142 3.57036 16.8003 4.26856 12.5261 5.06328ZM24.1771 8.03518C24.1404 7.96006 24.1067 7.8835 24.0758 7.80567C23.4555 6.24518 21.9643 7.25655 21.5706 8.17461C20.7957 9.98284 20.9096 10.7722 20.5952 12.6051C20.2809 14.438 19.199 17.9665 17.642 19.778C15.4177 22.3649 12.9845 23.5146 9.57289 23.18C6.16124 22.8453 3.53175 19.8745 2.55848 17.7209C1.74185 15.9138 1.61863 13.8642 2.58459 11.2076C3.55054 8.55106 6.44841 6.39104 9.09774 5.35286C11.7471 4.31468 13.844 4.21279 15.3216 3.77092C16.7993 3.32798 17.6702 2.59868 17.6159 1.9777C17.548 1.20764 16.8254 0.797949 16.4171 0.626349C15.151 0.209777 13.8295 -0.00154032 12.5 8.4518e-06C5.59628 8.4518e-06 0 5.59632 0 12.5C0 19.4037 5.59628 25 12.5 25C19.4037 25 25 19.4037 25 12.5C25.0003 10.9719 24.7212 9.45741 24.1771 8.03518Z" fill="black"/>
</svg>
